<svg xmlns="http://www.w3.org/2000/svg" viewBox="0 0 1000 1000" xml:space="preserve">
  <path d="M393 110c-91 6-140 18-166 43a541 541 0 0 0-95 199l-2 10-11-16a97 97 0 0 0-40-37c-13-6-45-6-55 0-11 7-15 19-14 48 1 25 3 32 15 39 5 3 12 4 50 5l44 1-11 12c-36 38-58 82-63 131-4 33 3 131 12 175 5 23 15 51 23 62 4 5 11 10 17 13l10 5 1 34c2 40 4 46 19 53 7 3 14 4 46 4s38-1 46-4c15-7 17-12 18-44l1-27 24 1 72 4c60 4 271 4 332 0l72-4 24-1v25c0 30 3 38 18 45 9 5 13 5 47 5 32 0 38-1 46-4 15-7 17-13 18-53l2-34 10-5c13-5 19-14 28-36 13-32 19-73 24-153 3-46 1-73-8-101-10-32-30-65-56-91l-10-12 44-1c48-1 52-2 60-15 6-8 7-49 2-63-6-15-13-18-38-18-31 0-49 11-68 41l-11 16-3-9c-18-69-34-109-61-154-22-36-33-48-53-60-22-13-58-21-116-27-31-3-205-4-244-2zm233 64c64 6 108 17 119 28a621 621 0 0 1 71 179l-33-1a3592 3592 0 0 0-595 2c-6 2-6 1-4-7a508 508 0 0 1 71-173c10-11 57-22 119-29 57-5 194-5 252 1zM230 487c25 12 38 31 40 60 1 16 0 19-5 31-7 15-21 29-36 36-16 7-41 7-58-1a70 70 0 0 1-19-111c21-21 51-27 78-15zm597 0a69 69 0 0 1 1 126c-16 8-41 8-57 1-14-6-28-20-35-33-8-16-9-42-2-58 7-15 16-24 28-32 21-12 43-13 65-4zM654 622c17 12 13 27-13 54-21 21-13 20-141 20s-120 1-141-20c-22-23-27-34-20-47 6-11 3-11 162-11 138 0 149 0 153 4z"/>
</svg>
