<svg version="1.0" xmlns="http://www.w3.org/2000/svg" width="1706.7" height="853.3" viewBox="0 0 1280 640">
  <path d="M1159 61c-25 2-55 9-74 16-18 6-86 38-247 116-41 21-41 21-51 19h-5l-2-6c-3-11-8-17-15-22l-6-4h-10c-12 1-24 5-36 11l-21 9-11 3-75-6-77-7-2-7c-4-15-10-24-20-29-5-2-6-2-13-2-13 2-21 4-36 11-7 4-17 8-28 11l-18 6-158-14c-141-12-160-14-171-13-17 0-27 2-36 7l-8 3-16-2c-16-3-23-3-23-1l7 6 6 5v7l-2 12v6h3c3 0 3-1 9-9l6-10 75 18 181 42 11-5 10-4-13 10c-10 8-18 13-34 21l-20 10 3 6 47 84 44 78h-8l-109-13a261 261 0 0 0-150 13l-5 2 5 2 45 11a112793 112793 0 0 0 184 50c-2 1-2 3-3 14v13h5a965 965 0 0 0 61-3h8l47 27 48 26 6-4c24-13 33-20 35-28 1-5 2-4-7-28l-5-14 12-3c84-15 92-17 124-31l17-7 29-4a1076 1076 0 0 0 76-14l-1 7c0 4 0 5 3 8 4 4 8 5 13 2l4-3v2c0 4 4 9 8 10 7 2 13-3 14-11v-4l2 3c2 4 8 8 11 7l6-4c3-2 3-4 4-8 0-5 2-8 2-4s2 8 5 9c5 3 9 3 13-1 3-3 3-4 4-10l-1-9c-1-1-1-1 1-1l5 2c5 0 5 1 2 3-1 2-1 2 2 7l3 6 4-2c3-2 4-2 6 0h12l2 5 5 6 2 4 7-4c7-4 7-4 10-2 6 3 6 3 4 6l-7 13-6 11 2 2 3 3 9-5 16-11 6-4 5 3 4 3-2 3-8 13c-4 9-5 10-4 12l3 2 14-9 14-9 6 3 5 4-6 12c-6 11-7 13-6 15 2 1 2 1 10-4l18-12 10-7 30 25 31 24 1 11 1 12h3c3-1 3-2 5-8s3-8 9-14l11-8c13-6 16-8 21-13 8-8 8-9 5-20l-3-11 7-2c17-3 43-12 54-19 9-6 25-18 27-22 2-3 3-10 2-20-1-14-6-24-15-31-6-5-10-6-18-5-13 2-19 4-32 11a206 206 0 0 1-46 16l-2-4-1-4 4-1c13-2 34-8 48-15 8-4 27-18 32-24 4-4 6-11 5-21-2-18-10-31-23-36-4-2-5-2-12-1-12 2-21 5-34 11-12 6-39 15-41 13l-10-74a222 222 0 0 1 39-27 3118 3118 0 0 0 119-59l-1 2-2 8c0 4 0 5-2 7-7 5-7 14-2 19 3 2 4 2 7 2 4-1 5 0 7 2 7 5 16 1 17-9l-1-7c-1-3-6-5-9-5-3 1-3 1-3-6v-7l6-5 5-5h-4c-5 0-5 0-5-2s2-4 13-10c24-16 34-24 42-38s11-27 8-37c-2-8-11-15-28-21l-15-6-31-14c-7-1-30-1-46 1zm49 146c-1 1-4-2-4-3 0-3 3-3 3 0l1 3zm-830 31 9 3-12-1-9-3c1-1 2-1 12 1zm17 5h-3c-1-1-1-1 1-1l2 1zm62 13c22 5 22 5 20 6l-16-3-17-4-34 31 8 3 14 4 7 2-9 13c-6 9-8 13-7 14v2l-48-34c-1-1 0-2 5-6l5-4 10 3 11 2 3-2c11-10 31-28 30-29l-3-1c-2-1-2-1 0-1l21 4zm78 18a384 384 0 0 1 25 8c-2 1-57-12-55-14l3-1 27 7zm-179-2c4 1 4 1 3 3-2 1-2 1-6-1-4-3-5-4-2-4l5 2zm239 15 17 7c9 5 10 6 8 7l-11-4-9-4-21 17-21 18v2c1 1-11 7-36 20l-38 19-30-22c-26-19-30-22-28-22l26-14 10-7a2146 2146 0 0 1 58 16v2c-2 2-2 4-2 8l1 5c1 0 10-3 17-7 5-2 5-2 12 0l6 1 20-17 21-19c1-1 1-1-3-2-7-2-7-2-6-3 2-2 2-2 9-1zm281 111v1l-10-2 10 1zm40 17-1 1c-1 0-2 0-1-1l1-1 1 1zm-119 18-3 3 2-5c3-2 3-1 1 2zm137 0c2 1 2 2 1 3-1 0-5-3-4-4 0-1 2-1 3 1zm-112 3-3 3-3 2 1-3c0-2 1-3 3-2h2zm-50 3-1 7c1 3 0 4-1 5s-1 1-1-3l-3-6-2-3 5-1 5-2-2 3zm187 17-1 1c-1 1-7-4-6-6 0-1 1-1 3 2l4 3zm21 19 3 5c-1 1-10-7-9-8 1-2 1-1 6 3z"/>
</svg>
