<svg xmlns="http://www.w3.org/2000/svg" viewBox="0 0 512 512" style="enable-background:new 0 0 512 512" xml:space="preserve">
  <path d="M320 144a64 64 0 1 1 0-128 64 64 0 0 1 0 128zm0-96a32 32 0 1 0 0 64 32 32 0 0 0 0-64zM96 496a96 96 0 1 1 0-192 96 96 0 0 1 0 192zm0-160a64 64 0 1 0 0 128 64 64 0 0 0 0-128zM416 496a96 96 0 1 1 0-192 96 96 0 0 1 0 192zm0-160a64 64 0 1 0 0 128 64 64 0 0 0 0-128z"/>
  <path d="M256 448c-26 0-48-22-48-48 0-42-23-80-60-99a48 48 0 0 1-11-78l86-82c9-8 21-13 33-13h1a48 48 0 0 1 42 27s20 37 53 37a48 48 0 0 1 0 96c-38-1-74-16-101-41l-7 7c38 38 60 91 60 146 0 26-21 48-48 48zm0-288c-4 0-8 2-11 4l-86 82-3 5c-4 7-1 17 6 21 48 25 78 74 78 128a16 16 0 0 0 32 0c0-52-22-100-62-134-3-3-5-7-5-12-1-4 1-9 5-12l31-29c3-3 6-5 11-5 5 1 9 3 12 6 22 26 54 41 88 42a16 16 0 0 0 0-32c-52 0-80-53-81-55l-3-4c-3-3-7-5-12-5z"/>
</svg>
